<svg width="0" height="0" style="position:absolute" aria-hidden="true"><symbol id="vp-logo" viewBox="0 0 393 120"><g transform="translate(0,92)"><path d="M37.41-52.41L54.75-52.41L36.75 0L17.63 0L-0.23-52.41L17.34-52.41L27.19-16.31L27.75-16.31L37.41-52.41ZM70.29 0L53.61 0L53.61-52.41L70.29-52.41L70.29 0ZM61.90-58.41L61.90-58.41Q58.39-58.41 55.86-60.75Q53.33-63.09 53.33-66.42L53.33-66.42Q53.33-69.75 55.86-72.07Q58.39-74.39 61.90-74.39L61.90-74.39Q65.47-74.39 67.97-72.07Q70.48-69.75 70.48-66.42L70.48-66.42Q70.48-63.09 67.97-60.75Q65.47-58.41 61.90-58.41ZM69.90-52.41L102.90-52.41L102.90-40.08L69.90-40.08L69.90-52.41ZM76.79-14.63L76.79-64.88L93.43-64.88L93.43-16.50Q93.43-14.39 94.46-13.34Q95.49-12.28 97.70-12.28L97.70-12.28Q98.54-12.28 99.64-12.47Q100.74-12.66 101.35-12.84L101.35-12.84L103.84-0.75Q101.03 0.05 98.61 0.40Q96.20 0.75 93.85 0.75L93.85 0.75Q85.51 0.75 81.15-3.21Q76.79-7.17 76.79-14.63L76.79-14.63ZM118.77 0.94L118.77 0.94Q113.76 0.94 109.84-0.77Q105.93-2.48 103.73-5.91Q101.52-9.33 101.52-14.53L101.52-14.53Q101.52-18.89 103.05-21.89Q104.57-24.89 107.26-26.77Q109.96-28.64 113.48-29.65Q116.99-30.66 120.98-30.94L120.98-30.94Q125.43-31.36 128.15-31.78Q130.87-32.20 132.11-33.09Q133.35-33.98 133.35-35.58L133.35-35.58L133.35-35.81Q133.35-38.39 131.57-39.84Q129.79-41.30 126.69-41.30L126.69-41.30Q123.37-41.30 121.37-39.84Q119.38-38.39 118.82-35.91L118.82-35.91L103.49-36.42Q104.15-41.20 106.98-44.98Q109.82-48.75 114.81-50.91Q119.80-53.06 126.88-53.06L126.88-53.06Q131.85-53.06 136.07-51.89Q140.29-50.72 143.43-48.47Q146.57-46.22 148.30-42.98Q150.04-39.75 150.04-35.63L150.04-35.63L150.04 0L134.33 0L134.33-7.36L133.96-7.36Q132.51-4.64 130.35-2.81Q128.19-0.98 125.31-0.02Q122.43 0.94 118.77 0.94ZM123.88-10.03L123.88-10.03Q126.55-10.03 128.73-11.13Q130.91-12.23 132.20-14.16Q133.49-16.08 133.49-18.66L133.49-18.66L133.49-23.58Q132.79-23.20 131.78-22.90Q130.77-22.59 129.55-22.31Q128.33-22.03 127.09-21.84Q125.85-21.66 124.73-21.47L124.73-21.47Q122.33-21.14 120.67-20.32Q119.01-19.50 118.16-18.28Q117.32-17.06 117.32-15.33L117.32-15.33Q117.32-12.75 119.15-11.39Q120.98-10.03 123.88-10.03ZM169.80 0L153.11 0L153.11-52.41L168.91-52.41L168.91-42.75L169.52-42.75Q171.16-47.53 175.07-50.30Q178.99-53.06 184.33-53.06L184.33-53.06Q189.82-53.06 193.71-50.25Q197.60-47.44 198.58-42.75L198.58-42.75L199.14-42.75Q200.64-47.39 204.91-50.23Q209.18-53.06 214.99-53.06L214.99-53.06Q222.39-53.06 227.03-48.33Q231.68-43.59 231.68-35.30L231.68-35.30L231.68 0L214.99 0L214.99-31.45Q214.99-35.34 212.97-37.41Q210.96-39.47 207.77-39.47L207.77-39.47Q204.35-39.47 202.38-37.24Q200.41-35.02 200.41-31.27L200.41-31.27L200.41 0L184.38 0L184.38-31.64Q184.38-35.25 182.41-37.36Q180.44-39.47 177.21-39.47L177.21-39.47Q175.00-39.47 173.34-38.41Q171.68-37.36 170.74-35.48Q169.80-33.61 169.80-30.98L169.80-30.98L169.80 0ZM251.44 0L234.75 0L234.75-52.41L251.44-52.41L251.44 0ZM243.05-58.41L243.05-58.41Q239.53-58.41 237-60.75Q234.47-63.09 234.47-66.42L234.47-66.42Q234.47-69.75 237-72.07Q239.53-74.39 243.05-74.39L243.05-74.39Q246.61-74.39 249.12-72.07Q251.63-69.75 251.63-66.42L251.63-66.42Q251.63-63.09 249.12-60.75Q246.61-58.41 243.05-58.41ZM271.20-29.86L271.20-29.86L271.20 0L254.51 0L254.51-52.41L271.01-52.41L271.01-42.75L271.43-42.75Q273.22-47.53 277.13-50.30Q281.04-53.06 286.86-53.06L286.86-53.06Q292.39-53.06 296.47-50.60Q300.54-48.14 302.79-43.71Q305.04-39.28 305.04-33.38L305.04-33.38L305.04 0L288.36 0L288.36-30.09Q288.36-34.45 286.15-36.91Q283.95-39.38 279.97-39.38L279.97-39.38Q277.34-39.38 275.37-38.25Q273.40-37.13 272.30-34.99Q271.20-32.86 271.20-29.86ZM322.93 0.94L322.93 0.94Q317.92 0.94 314.00-0.77Q310.09-2.48 307.88-5.91Q305.68-9.33 305.68-14.53L305.68-14.53Q305.68-18.89 307.20-21.89Q308.73-24.89 311.42-26.77Q314.12-28.64 317.63-29.65Q321.15-30.66 325.13-30.94L325.13-30.94Q329.59-31.36 332.31-31.78Q335.02-32.20 336.27-33.09Q337.51-33.98 337.51-35.58L337.51-35.58L337.51-35.81Q337.51-38.39 335.73-39.84Q333.95-41.30 330.85-41.30L330.85-41.30Q327.52-41.30 325.53-39.84Q323.54-38.39 322.98-35.91L322.98-35.91L307.65-36.42Q308.31-41.20 311.14-44.98Q313.98-48.75 318.97-50.91Q323.96-53.06 331.04-53.06L331.04-53.06Q336.01-53.06 340.23-51.89Q344.45-50.72 347.59-48.47Q350.73-46.22 352.46-42.98Q354.20-39.75 354.20-35.63L354.20-35.63L354.20 0L338.49 0L338.49-7.36L338.12-7.36Q336.67-4.64 334.51-2.81Q332.35-0.98 329.47-0.02Q326.59 0.94 322.93 0.94ZM328.04-10.03L328.04-10.03Q330.71-10.03 332.89-11.13Q335.07-12.23 336.36-14.16Q337.65-16.08 337.65-18.66L337.65-18.66L337.65-23.58Q336.95-23.20 335.94-22.90Q334.93-22.59 333.71-22.31Q332.49-22.03 331.25-21.84Q330.01-21.66 328.88-21.47L328.88-21.47Q326.49-21.14 324.83-20.32Q323.17-19.50 322.32-18.28Q321.48-17.06 321.48-15.33L321.48-15.33Q321.48-12.75 323.31-11.39Q325.13-10.03 328.04-10.03Z" fill="currentColor"/><path d="M369.04 1.03L369.04 1.03Q365.24 1.03 362.66-1.52Q360.08-4.08 360.08-7.83L360.08-7.83Q360.08-11.58 362.66-14.13Q365.24-16.69 369.04-16.69L369.04-16.69Q372.83-16.69 375.41-14.13Q377.99-11.58 377.99-7.83L377.99-7.83Q377.99-4.08 375.41-1.52Q372.83 1.03 369.04 1.03Z" fill="var(--vp-ponto)"/></g></symbol></svg>